<svg viewBox="0 0 16 16" xmlns="http://www.w3.org/2000/svg" xmlns:xlink="http://www.w3.org/1999/xlink" width="16" height="16" fill="none">
	<rect id="Copy" width="16" height="16" x="0" y="0" />
	<circle id="椭圆 1" cx="8" cy="8" r="7" fill="rgb(255,255,255)" />
	<path id="矢量 4" d="M8 15C4.1 15 1 11.9 1 8C1 4.1 4.1 1 8 1C11.9 1 15 4.1 15 8C15 11.9 11.9 15 8 15ZM12 5.7C12 4.8 11.3 4.1 10.4 4.1L7.3 4.1C6.4 4.1 5.7 4.8 5.7 5.7L5 5.7C4.2 5.7 4 6.7 4 7.3L4 10.4C4 11.3 4.9 12 5.8 12L8.9 12C9.5 12 10.1 11.7 10.2 11.2L10.4 10.4C11.3 10.4 12 9.7 12 8.8L12 5.7ZM10.4 9.6L10.4 6.4C10.4 6 10.1 5.7 9.7 5.7L6.5 5.7C6.5 5.3 6.8 4.9 7.3 4.9L10.4 4.9C10.8 4.9 11.2 5.2 11.2 5.7L11.2 8.8C11.2 9.2 10.8 9.6 10.4 9.6ZM9.50001 7.19387L9.50001 10.3C9.50001 10.7 9.3 11 8.8 11L5.7 11C5.3 11 4.99999 10.8 4.99999 10.3L4.99999 7.3C4.99999 6.9 5.2 6.5 5.7 6.5L8.8 6.5C9.3 6.5 9.50001 6.79387 9.50001 7.19387L9.50001 7.19387Z" fill="rgb(76,126,79)" fill-rule="nonzero" />
</svg>
