<svg viewBox="0 0 16 16" xmlns="http://www.w3.org/2000/svg" xmlns:xlink="http://www.w3.org/1999/xlink" width="16" height="16" fill="none">
	<rect id="Del" width="16" height="16" x="0" y="0" />
	<circle id="椭圆 1" cx="8" cy="8" r="7" fill="rgb(255,255,255)" />
	<path id="矢量 5" d="M5.6908 6.7108L5.6908 9.821C5.6908 9.86118 5.69277 9.90126 5.69671 9.94125C5.70065 9.98123 5.70653 10.0209 5.71437 10.0603C5.72221 10.0997 5.73196 10.1387 5.74363 10.1771C5.75529 10.2156 5.76881 10.2534 5.78418 10.2905C5.79956 10.3276 5.81672 10.3639 5.83566 10.3993C5.8546 10.4347 5.87523 10.4692 5.89755 10.5026C5.91988 10.536 5.94378 10.5682 5.96927 10.5993C5.99476 10.6303 6.02171 10.6601 6.05012 10.6885C6.07853 10.7169 6.10827 10.7438 6.13933 10.7693C6.17039 10.7948 6.20262 10.8187 6.23603 10.841C6.26943 10.8634 6.30386 10.884 6.33929 10.9029C6.37473 10.9219 6.411 10.939 6.44812 10.9544C6.48524 10.9698 6.52303 10.9833 6.56148 10.995C6.59993 11.0066 6.63886 11.0164 6.67826 11.0242C6.71767 11.0321 6.75737 11.038 6.79735 11.0419C6.83734 11.0458 6.87742 11.0478 6.9176 11.0478L9.0686 11.0478C9.10878 11.0478 9.14885 11.0458 9.18883 11.0419C9.22882 11.0379 9.26851 11.032 9.30791 11.0242C9.34731 11.0164 9.38623 11.0066 9.42468 10.9949C9.46312 10.9833 9.5009 10.9697 9.53802 10.9544C9.57513 10.939 9.6114 10.9218 9.64683 10.9029C9.68226 10.8839 9.71668 10.8633 9.75008 10.841C9.78348 10.8187 9.81571 10.7947 9.84676 10.7693C9.87781 10.7438 9.90754 10.7168 9.93595 10.6884C9.96436 10.66 9.9913 10.6303 10.0168 10.5992C10.0423 10.5681 10.0662 10.5359 10.0885 10.5025C10.1108 10.4691 10.1314 10.4347 10.1504 10.3993C10.1693 10.3638 10.1865 10.3275 10.2018 10.2904C10.2172 10.2533 10.2307 10.2155 10.2424 10.1771C10.254 10.1386 10.2638 10.0997 10.2716 10.0603C10.2795 10.0209 10.2854 9.98122 10.2893 9.94124C10.2932 9.90125 10.2952 9.86117 10.2952 9.821L10.2952 6.711L10.716 6.711C10.7357 6.711 10.7552 6.70908 10.7745 6.70523C10.7938 6.70139 10.8126 6.6957 10.8308 6.68816C10.849 6.68062 10.8663 6.67138 10.8827 6.66044C10.899 6.6495 10.9142 6.63706 10.9281 6.62313C10.9421 6.6092 10.9545 6.59405 10.9654 6.57767C10.9764 6.56129 10.9856 6.544 10.9932 6.5258C11.0007 6.5076 11.0064 6.48885 11.0102 6.46953C11.0141 6.45021 11.016 6.4307 11.016 6.411C11.016 6.3913 11.0141 6.37179 11.0102 6.35247C11.0064 6.33315 11.0007 6.31439 10.9932 6.29619C10.9856 6.27799 10.9764 6.26071 10.9654 6.24433C10.9545 6.22795 10.9421 6.2128 10.9281 6.19887C10.9142 6.18494 10.899 6.1725 10.8827 6.16156C10.8663 6.15061 10.849 6.14137 10.8308 6.13383C10.8126 6.1263 10.7938 6.12061 10.7745 6.11676C10.7552 6.11292 10.7357 6.111 10.716 6.111L9.2144 6.111C9.21181 6.07272 9.20742 6.03465 9.20125 5.99679C9.19508 5.95892 9.18714 5.92143 9.17745 5.88431C9.16775 5.84719 9.15633 5.81061 9.1432 5.77456C9.13006 5.73852 9.11526 5.70317 9.0988 5.66852C9.08234 5.63386 9.06429 5.60006 9.04465 5.5671C9.02501 5.53414 9.00387 5.50218 8.98123 5.47121C8.95858 5.44024 8.93454 5.4104 8.90909 5.38169C8.88364 5.35298 8.8569 5.32553 8.82887 5.29933C8.80084 5.27314 8.77164 5.24832 8.74128 5.22487C8.71092 5.20142 8.67952 5.17944 8.64709 5.15894C8.61466 5.13845 8.58134 5.11951 8.54713 5.10215C8.51292 5.08478 8.47797 5.06906 8.44229 5.05498C8.4066 5.0409 8.37033 5.02852 8.33348 5.01785C8.29663 5.00718 8.25936 4.99827 8.22167 4.9911C8.18398 4.98393 8.14604 4.97855 8.10784 4.97495C8.06964 4.97135 8.03136 4.96955 7.993 4.96955C7.95464 4.96955 7.91636 4.97135 7.87816 4.97495C7.83996 4.97855 7.80202 4.98393 7.76433 4.9911C7.72664 4.99827 7.68937 5.00718 7.65252 5.01785C7.61567 5.02852 7.5794 5.0409 7.54371 5.05498C7.50803 5.06906 7.47308 5.08478 7.43887 5.10215C7.40466 5.11951 7.37134 5.13845 7.33891 5.15894C7.30648 5.17944 7.27508 5.20142 7.24472 5.22487C7.21436 5.24832 7.18516 5.27314 7.15713 5.29933C7.1291 5.32553 7.10236 5.35298 7.07691 5.38169C7.05146 5.4104 7.02742 5.44024 7.00477 5.47121C6.98213 5.50218 6.96099 5.53414 6.94135 5.5671C6.92171 5.60006 6.90366 5.63386 6.8872 5.66852C6.87074 5.70317 6.85594 5.73852 6.84281 5.77456C6.82967 5.81061 6.81825 5.84719 6.80855 5.88431C6.79886 5.92143 6.79092 5.95892 6.78475 5.99679C6.77858 6.03465 6.77419 6.07272 6.7716 6.111L5.27 6.111C5.2503 6.111 5.23079 6.11292 5.21147 6.11676C5.19215 6.12061 5.17339 6.1263 5.15519 6.13383C5.137 6.14137 5.11971 6.15061 5.10333 6.16156C5.08695 6.1725 5.0718 6.18494 5.05787 6.19887C5.04394 6.2128 5.0315 6.22795 5.02056 6.24433C5.00961 6.26071 5.00037 6.27799 4.99284 6.29619C4.9853 6.31439 4.97961 6.33315 4.97576 6.35247C4.97192 6.37179 4.97 6.3913 4.97 6.411C4.97 6.4307 4.97192 6.45021 4.97576 6.46953C4.97961 6.48885 4.9853 6.5076 4.99284 6.5258C5.00037 6.544 5.00961 6.56129 5.02056 6.57767C5.0315 6.59405 5.04394 6.6092 5.05787 6.62313C5.0718 6.63706 5.08695 6.6495 5.10333 6.66044C5.11971 6.67138 5.137 6.68062 5.15519 6.68816C5.17339 6.6957 5.19215 6.70139 5.21147 6.70523C5.23079 6.70908 5.2503 6.711 5.27 6.711L5.6908 6.711L5.6908 6.7108ZM6.2908 6.7108L9.6952 6.7108L9.6952 9.821C9.6952 9.86215 9.69119 9.9029 9.68316 9.94326C9.67513 9.98362 9.66325 10.0228 9.64751 10.0608C9.63176 10.0988 9.61246 10.135 9.58961 10.1692C9.56675 10.2034 9.54078 10.235 9.51169 10.2641C9.48259 10.2932 9.45094 10.3192 9.41674 10.3421C9.38253 10.365 9.34642 10.3843 9.3084 10.4C9.27039 10.4158 9.23121 10.4277 9.19085 10.4357C9.1505 10.4438 9.10975 10.4478 9.0686 10.4478L6.9176 10.4478C6.87644 10.4478 6.83568 10.4438 6.79532 10.4358C6.75495 10.4277 6.71576 10.4158 6.67773 10.4001C6.63971 10.3843 6.60359 10.365 6.56937 10.3422C6.53515 10.3193 6.50349 10.2933 6.47439 10.2642C6.44528 10.2351 6.4193 10.2035 6.39643 10.1692C6.37357 10.135 6.35426 10.0989 6.33851 10.0609C6.32276 10.0228 6.31087 9.98365 6.30284 9.94328C6.29481 9.90292 6.2908 9.86215 6.2908 9.821L6.2908 6.711L6.2908 6.7108ZM7.3744 6.1108C7.37945 6.07369 7.38777 6.03733 7.39936 6.00172C7.41095 5.96611 7.42563 5.93182 7.44339 5.89885C7.46115 5.86588 7.48171 5.83476 7.50507 5.80549C7.52843 5.77622 7.55421 5.74927 7.58242 5.72464C7.61063 5.70001 7.64081 5.67809 7.67296 5.65889C7.70512 5.63969 7.73872 5.62351 7.77379 5.61036C7.80885 5.59721 7.84481 5.58729 7.88165 5.5806C7.9185 5.57392 7.95565 5.57058 7.9931 5.57058C8.03055 5.57058 8.0677 5.57392 8.10455 5.5806C8.14139 5.58729 8.17735 5.59721 8.21241 5.61036C8.24748 5.62351 8.28109 5.63969 8.31324 5.65889C8.34539 5.67809 8.37557 5.70001 8.40378 5.72464C8.43199 5.74927 8.45777 5.77622 8.48113 5.80549C8.50449 5.83476 8.52505 5.86588 8.54281 5.89885C8.56058 5.93182 8.57525 5.96611 8.58684 6.00172C8.59843 6.03733 8.60675 6.07369 8.6118 6.1108L7.3744 6.1108ZM8 15C4.134 15 1 11.866 1 8C1 4.134 4.134 1 8 1C11.866 1 15 4.134 15 8C15 11.866 11.866 15 8 15ZM7.0536 7.8108L7.0536 9.2012C7.0536 9.2209 7.05552 9.24041 7.05936 9.25973C7.06321 9.27905 7.0689 9.2978 7.07644 9.316C7.08397 9.3342 7.09321 9.35149 7.10416 9.36787C7.1151 9.38425 7.12754 9.3994 7.14147 9.41333C7.1554 9.42726 7.17055 9.4397 7.18693 9.45064C7.20331 9.46159 7.22059 9.47083 7.23879 9.47836C7.25699 9.4859 7.27575 9.49159 7.29507 9.49543C7.31439 9.49928 7.3339 9.5012 7.3536 9.5012C7.3733 9.5012 7.39281 9.49928 7.41213 9.49543C7.43145 9.49159 7.4502 9.4859 7.4684 9.47836C7.4866 9.47083 7.50389 9.46159 7.52027 9.45064C7.53665 9.4397 7.5518 9.42726 7.56573 9.41333C7.57966 9.3994 7.5921 9.38425 7.60304 9.36787C7.61398 9.35149 7.62322 9.3342 7.63076 9.316C7.6383 9.2978 7.64399 9.27905 7.64783 9.25973C7.65168 9.24041 7.6536 9.2209 7.6536 9.2012L7.6536 7.8108C7.6536 7.7911 7.65168 7.77159 7.64783 7.75227C7.64399 7.73295 7.6383 7.71419 7.63076 7.69599C7.62322 7.6778 7.61398 7.66051 7.60304 7.64413C7.5921 7.62775 7.57966 7.6126 7.56573 7.59867C7.5518 7.58474 7.53665 7.5723 7.52027 7.56136C7.50389 7.55042 7.4866 7.54117 7.4684 7.53364C7.4502 7.5261 7.43145 7.52041 7.41213 7.51656C7.39281 7.51272 7.3733 7.5108 7.3536 7.5108C7.3339 7.5108 7.31439 7.51272 7.29507 7.51656C7.27575 7.52041 7.25699 7.5261 7.23879 7.53364C7.22059 7.54117 7.20331 7.55042 7.18693 7.56136C7.17055 7.5723 7.1554 7.58474 7.14147 7.59867C7.12754 7.6126 7.1151 7.62775 7.10416 7.64413C7.09321 7.66051 7.08397 7.6778 7.07644 7.69599C7.0689 7.71419 7.06321 7.73295 7.05936 7.75227C7.05552 7.77159 7.0536 7.7911 7.0536 7.8108ZM8.4296 7.8108L8.4296 9.2012C8.4296 9.2209 8.43152 9.24041 8.43536 9.25973C8.43921 9.27905 8.4449 9.2978 8.45244 9.316C8.45997 9.3342 8.46921 9.35149 8.48016 9.36787C8.4911 9.38425 8.50354 9.3994 8.51747 9.41333C8.53139 9.42726 8.54655 9.4397 8.56293 9.45064C8.57931 9.46159 8.5966 9.47083 8.61479 9.47836C8.63299 9.4859 8.65175 9.49159 8.67107 9.49543C8.69039 9.49928 8.7099 9.5012 8.7296 9.5012C8.7493 9.5012 8.76881 9.49928 8.78813 9.49543C8.80745 9.49159 8.82621 9.4859 8.84441 9.47836C8.8626 9.47083 8.87989 9.46159 8.89627 9.45064C8.91265 9.4397 8.9278 9.42726 8.94173 9.41333C8.95566 9.3994 8.9681 9.38425 8.97904 9.36787C8.98998 9.35149 8.99923 9.3342 9.00676 9.316C9.0143 9.2978 9.01999 9.27905 9.02384 9.25973C9.02768 9.24041 9.0296 9.2209 9.0296 9.2012L9.0296 7.8108C9.0296 7.7911 9.02768 7.77159 9.02384 7.75227C9.01999 7.73295 9.0143 7.71419 9.00676 7.69599C8.99923 7.6778 8.98998 7.66051 8.97904 7.64413C8.9681 7.62775 8.95566 7.6126 8.94173 7.59867C8.9278 7.58474 8.91265 7.5723 8.89627 7.56136C8.87989 7.55042 8.8626 7.54117 8.8444 7.53364C8.82621 7.5261 8.80745 7.52041 8.78813 7.51656C8.76881 7.51272 8.7493 7.5108 8.7296 7.5108C8.7099 7.5108 8.69039 7.51272 8.67107 7.51656C8.65175 7.52041 8.63299 7.5261 8.61479 7.53364C8.5966 7.54117 8.57931 7.55042 8.56293 7.56136C8.54655 7.5723 8.53139 7.58474 8.51747 7.59867C8.50354 7.6126 8.4911 7.62775 8.48016 7.64413C8.46921 7.66051 8.45997 7.6778 8.45244 7.69599C8.4449 7.71419 8.43921 7.73295 8.43536 7.75227C8.43152 7.77159 8.4296 7.7911 8.4296 7.8108Z" fill="rgb(98,23,23)" fill-rule="nonzero" />
</svg>
