<?xml version="1.0" standalone="no"?><!DOCTYPE svg PUBLIC "-//W3C//DTD SVG 1.1//EN" "http://www.w3.org/Graphics/SVG/1.1/DTD/svg11.dtd"><svg t="1754031817693" class="icon" viewBox="0 0 1024 1024" version="1.1" xmlns="http://www.w3.org/2000/svg" p-id="5509" xmlns:xlink="http://www.w3.org/1999/xlink" width="256" height="256"><path d="M384 72.192H158.784c-47.808 0-86.592 38.784-86.592 86.592V384c0 47.872 38.784 86.656 86.592 86.656H384c47.872 0 86.656-38.784 86.656-86.656V158.784c0-47.808-38.784-86.592-86.656-86.592z m-225.216 83.2H384c1.92 0 3.456 1.536 3.456 3.392V384c0 1.92-1.536 3.456-3.456 3.456H158.784A3.456 3.456 0 0 1 155.392 384V158.784c0-1.92 1.536-3.392 3.392-3.392zM384 567.616H158.784c-47.808 0-86.592 38.784-86.592 86.592v225.216c0 47.808 38.784 86.592 86.592 86.592H384c47.872 0 86.656-38.784 86.656-86.592v-225.216c0-47.808-38.784-86.592-86.656-86.592z m-225.216 83.2H384c1.92 0 3.456 1.536 3.456 3.392v225.216c0 1.92-1.536 3.392-3.456 3.392H158.784a3.456 3.456 0 0 1-3.392-3.392v-225.216c0-1.92 1.536-3.392 3.392-3.392zM766.784 72.192a199.232 199.232 0 1 0 0 398.464 199.232 199.232 0 0 0 0-398.464z m0 83.2a116.032 116.032 0 1 1 0 232.064 116.032 116.032 0 0 1 0-232.064zM879.36 567.616h-225.152c-47.808 0-86.592 38.784-86.592 86.592v225.216c0 47.808 38.784 86.592 86.592 86.592h225.216c47.808 0 86.592-38.784 86.592-86.592v-225.216c0-47.808-38.784-86.592-86.592-86.592z m-225.152 83.2h225.216c1.92 0 3.392 1.536 3.392 3.392v225.216c0 1.92-1.536 3.392-3.392 3.392h-225.216a3.456 3.456 0 0 1-3.392-3.392v-225.216c0-1.92 1.536-3.392 3.392-3.392z" p-id="5510" fill="#8eef97"></path></svg>