<svg viewBox="0 0 16 16" xmlns="http://www.w3.org/2000/svg" xmlns:xlink="http://www.w3.org/1999/xlink" width="16" height="16" fill="none">
	<rect id="Button 1" width="16" height="16" x="0" y="0" />
	<path id="矢量 1" d="M5.5 9C5.08579 9 4.73223 9.14645 4.43934 9.43934C4.14645 9.73223 4 10.0858 4 10.5L4 12L2 12L2 14L14 14L14 12L12 12L12 10.5C12 10.0858 11.8536 9.73223 11.5607 9.43934C11.2678 9.14645 10.9142 9 10.5 9L5.5 9Z" fill="rgb(142,239,151)" fill-rule="nonzero" />
	<path id="矢量 2" d="M5.30372 2.5778C5.30372 2.5778 5.8503 1.73461 6.7142 1.28225C7.57869 0.829891 8.6429 0.959973 9.34075 1.39856C10.0392 1.83715 10.2744 2.20747 10.2744 2.20747L10.8759 1.86469C10.8759 1.86469 11 1.80316 11 1.94702L11 4.09952C11 4.09952 11 4.29143 10.8546 4.22257C10.7329 4.16516 9.41166 3.41366 8.99566 3.17664C8.76758 3.07469 8.96789 2.99177 8.96789 2.99177L9.54875 2.65983C9.54875 2.65983 9.21725 2.24497 8.73272 2.02524C8.2145 1.75511 7.72877 1.72289 7.13433 1.9476C6.74611 2.09409 6.28934 2.46939 5.9608 3.02312L5.30372 2.5778ZM10.6963 5.42232C10.6963 5.42232 10.1497 6.26522 9.2858 6.71786C8.4219 7.17023 7.3571 7.03985 6.65925 6.60126C5.9608 6.16268 5.72562 5.79235 5.72562 5.79235L5.12409 6.13514C5.12409 6.13514 5 6.19666 5 6.0531L5 3.9003C5 3.9003 5 3.70869 5.14536 3.77725C5.26708 3.83467 6.58834 4.58616 7.00434 4.82318C7.23242 4.92513 7.03211 5.00835 7.03211 5.00835L6.45125 5.34C6.45125 5.34 6.78274 5.75485 7.26728 5.97459C7.78551 6.24471 8.27122 6.27694 8.86567 6.05222C9.25389 5.90573 9.71066 5.53073 10.0392 4.9767L10.6963 5.42232Z" fill="rgb(142,239,151)" fill-rule="nonzero" />
</svg>
