<?xml version="1.0" standalone="no"?><!DOCTYPE svg PUBLIC "-//W3C//DTD SVG 1.1//EN" "http://www.w3.org/Graphics/SVG/1.1/DTD/svg11.dtd"><svg t="1753882436837" class="icon" viewBox="0 0 1024 1024" version="1.1" xmlns="http://www.w3.org/2000/svg" p-id="5059" xmlns:xlink="http://www.w3.org/1999/xlink" width="256" height="256"><path d="M288.256 216.064a51.2 51.2 0 0 0-72.192 8.192l-204.8 256a51.2 51.2 0 0 0 0 64l204.8 256a51.2 51.2 0 0 0 79.872-64L116.736 512l179.2-224.256a51.2 51.2 0 0 0-7.68-71.68z m724.48 264.192l-204.8-256a51.2 51.2 0 0 0-79.872 64L907.264 512l-179.2 224.256a51.2 51.2 0 0 0 79.872 64l204.8-256a51.2 51.2 0 0 0 0-64zM599.552 102.4a51.2 51.2 0 0 0-60.928 39.424l-153.6 716.8a51.2 51.2 0 0 0 39.424 62.976H435.2a51.2 51.2 0 0 0 51.2-40.448l153.6-716.8a51.2 51.2 0 0 0-40.448-61.952z" fill="#3E4055" p-id="5060"></path></svg>